''Exclusive Barbie Dhamaka''


Barbie as Repunzel

2002

DVDRip Dual Audio

=![amit6688]!=- 

Format                           : Matroska
File size                        : 714 MiB
Duration                         : 1h 23mn
Overall bit rate                 : 1 195 Kbps
Width                            : 544 pixels
Height                           : 288 pixels
Frame rate                       : 25.000 fps

Audio #1
ID                               : 2
Format                           : MPEG Audio
Format version                   : Version 1
Format profile                   : Layer 2
Codec ID                         : A_MPEG/L2
Codec ID/Hint                    : MP2
Duration                         : 1h 23mn
Bit rate mode                    : Constant
Bit rate                         : 128 Kbps
Channel(s)                       : 2 channels
Sampling rate                    : 44.1 KHz
Video delay                      : 181ms
Stream size                      : 76.5 MiB (11%)
Title                            : amit6688
Language                         : Hindi

Audio #2
ID                               : 3
Format                           : MPEG Audio
Format version                   : Version 1
Format profile                   : Layer 3
Mode                             : Dual mono
Codec ID                         : A_MPEG/L3
Codec ID/Hint                    : MP3
Duration                         : 1h 23mn
Bit rate mode                    : Constant
Bit rate                         : 128 Kbps
Channel(s)                       : 2 channels
Sampling rate                    : 44.1 KHz
Stream size                      : 76.5 MiB (11%)
Title                            : English
Language                         : English


 
http://img9.imageshack.us/img9/2003/vlcsnap2010091310h51m44.png 
http://img40.imageshack.us/img40/1582/vlcsnap2010091310h54m56.png 
http://img844.imageshack.us/img844/9840/vlcsnap2010091310h56m33.png 
http://img24.imageshack.us/img24/6984/vlcsnap2010091310h55m16.png
